# This file uses centimeters as units for non-parametric coordinates.

mtllib space.mtl
g default
v -0.121011 -0.123138 -0.547274
v -0.902745 -0.051031 -0.246509
v -0.902745 -0.051031 0.290517
v -0.121011 -0.123138 0.587981
v 0.984135 -0.043184 0.022004
v -0.902745 0.036750 -0.246509
v -0.902745 0.036750 0.290517
v -0.106029 0.105890 0.579687
v 0.984135 -0.007137 0.022004
v -0.106029 0.105890 -0.538980
v 0.320747 0.125480 0.181196
v 0.266803 0.116196 0.335372
v 0.266803 0.116196 -0.307674
v 0.320747 0.125480 -0.139518
v 0.740814 0.071304 0.022004
v 0.870705 0.023610 0.026530
v 0.436435 0.155900 0.096318
v 0.436435 0.155900 -0.054640
v 0.634157 0.114364 0.021387
v 0.127533 -0.192225 0.019140
v -0.246988 -0.123138 0.020234
v -0.246988 0.108857 0.020234
v 0.142515 0.151545 0.019195
v 0.266803 0.161851 0.011730
v 0.320747 0.170583 0.019782
v 0.436435 0.192225 0.020341
v 1.000000 -0.025336 0.022004
v -0.113593 -0.009737 0.703642
v -1.000000 -0.007567 0.290517
v -0.246988 -0.008268 0.020234
v -1.000000 -0.007567 -0.246509
v -0.113593 -0.009737 -0.703642
vt 1.502746 1.607100
vt 1.388976 0.505711
vt 1.570218 0.505711
vt 1.571324 1.737630
vt 1.755017 0.505711
vt 1.641247 1.607100
vt -2.100317 -0.892578
vt -1.756457 0.340841
vt -1.792511 0.494289
vt -2.404253 -0.904282
vt -1.282795 -1.284729
vt -1.338635 -0.693811
vt -1.402580 -2.636274
vt -1.417386 -2.661305
vt -0.576633 -0.892577
vt -1.035686 0.340841
vt 1.232298 -1.589582
vt 1.017668 -1.504469
vt 1.355382 -2.457304
vt 1.401019 -2.252362
vt 1.486353 -1.589582
vt 1.489916 -1.504469
vt 0.681213 -0.916217
vt 1.335952 -2.636274
vt 1.437565 -2.084079
vt 1.371451 -1.772115
vt 1.503553 -1.772115
vt 1.662745 -1.589582
vt 1.880734 -1.504469
vt 1.471348 -1.308369
vt 0.418934 -0.904282
vt 1.320857 -2.661306
vt 2.182633 -0.916217
vt 1.434544 -0.693811
vt 1.011970 0.340840
vt 0.975210 0.494289
vt 1.732742 0.340840
vt 2.438362 1.577435
vt 2.187144 1.577435
vt 2.168441 1.394902
vt 2.299209 1.394902
vt 2.231622 1.082938
vt 2.266513 0.914654
vt 2.671754 1.662547
vt 2.300000 0.709713
vt 2.331580 0.530742
vt 2.990750 2.250800
vt 2.346676 0.505711
vt 3.307664 2.262734
vt 2.692322 3.661305
vt 2.655562 3.507857
vt 1.959951 1.740566
vt 1.778709 1.740566
vt 1.892479 0.636241
vt 1.961057 0.505711
vt 2.144750 1.740566
vt 2.030979 0.636241
vt -0.197625 0.340841
vt 0.141804 -0.892577
vt 0.391105 -0.904282
vt -0.161571 0.494289
vt -0.551501 -2.636274
vt -0.536696 -2.661306
vn -0.355452 -0.218332 0.908837
vn -0.355452 -0.218332 0.908837
vn -0.355452 -0.218332 0.908837
vn -0.355452 -0.218332 0.908837
vn -0.128497 -0.991300 -0.028524
vn -0.128497 -0.991300 -0.028524
vn -0.128497 -0.991300 -0.028524
vn -0.128497 -0.991300 -0.028524
vn 0.167650 -0.967222 0.190723
vn 0.167650 -0.967222 0.190723
vn 0.167650 -0.967222 0.190723
vn -0.299195 -0.754120 -0.584625
vn -0.299195 -0.754120 -0.584625
vn -0.299195 -0.754120 -0.584625
vn -0.299195 -0.754120 -0.584625
vn -0.314882 -0.673460 0.668805
vn -0.314882 -0.673460 0.668805
vn -0.314882 -0.673460 0.668805
vn -0.314882 -0.673460 0.668805
vn 0.387827 -0.647170 0.656324
vn 0.387827 -0.647170 0.656324
vn 0.387827 -0.647170 0.656324
vn 0.387827 -0.647170 0.656324
vn 0.354049 -0.741623 -0.569776
vn 0.354049 -0.741623 -0.569776
vn 0.354049 -0.741623 -0.569776
vn 0.354049 -0.741623 -0.569776
vn -0.101370 0.994371 -0.030827
vn -0.101370 0.994371 -0.030827
vn -0.101370 0.994371 -0.030827
vn -0.101370 0.994371 -0.030827
vn 0.238312 0.944732 0.225141
vn 0.238312 0.944732 0.225141
vn 0.238312 0.944732 0.225141
vn 0.238312 0.944732 0.225141
vn 0.138801 0.972988 -0.184470
vn 0.138801 0.972988 -0.184470
vn 0.138801 0.972988 -0.184470
vn 0.138801 0.972988 -0.184470
vn 0.240890 0.945855 -0.217556
vn 0.240890 0.945855 -0.217556
vn 0.240890 0.945855 -0.217556
vn 0.240890 0.945855 -0.217556
vn 0.006139 0.994431 -0.105207
vn 0.006139 0.994431 -0.105207
vn 0.006139 0.994431 -0.105207
vn 0.006139 0.994431 -0.105207
vn 0.361180 0.772086 0.522907
vn 0.361180 0.772086 0.522907
vn 0.361180 0.772086 0.522907
vn 0.361180 0.772086 0.522907
vn 0.379856 0.745548 -0.547601
vn 0.379856 0.745548 -0.547601
vn 0.379856 0.745548 -0.547601
vn 0.379856 0.745548 -0.547601
vn 0.332862 0.850742 0.406743
vn 0.332862 0.850742 0.406744
vn 0.332862 0.850743 0.406743
vn -0.090932 0.940661 -0.326939
vn -0.090932 0.940661 -0.326939
vn -0.090932 0.940661 -0.326939
vn -0.090932 0.940661 -0.326939
vn 0.346904 0.692862 0.632139
vn 0.346904 0.692862 0.632139
vn 0.346904 0.692862 0.632139
vn 0.346904 0.692862 0.632139
vn 0.351133 0.686721 -0.636491
vn 0.351133 0.686721 -0.636491
vn 0.351133 0.686721 -0.636491
vn 0.351133 0.686721 -0.636491
vn -0.128353 -0.991320 0.028480
vn -0.128353 -0.991320 0.028480
vn -0.128353 -0.991320 0.028480
vn -0.128353 -0.991320 0.028480
vn -0.359334 -0.220716 -0.906732
vn -0.359334 -0.220716 -0.906732
vn -0.359334 -0.220716 -0.906732
vn -0.359334 -0.220716 -0.906732
vn -0.101219 0.994388 0.030776
vn -0.101219 0.994388 0.030776
vn -0.101219 0.994388 0.030776
vn -0.101219 0.994388 0.030776
vn 0.012571 0.994263 0.106218
vn 0.012571 0.994263 0.106218
vn 0.012571 0.994264 0.106218
vn 0.012571 0.994263 0.106218
vn 0.084647 0.979414 0.183257
vn 0.084647 0.979414 0.183257
vn 0.084647 0.979414 0.183257
vn 0.084647 0.979414 0.183257
vn -0.094177 0.941697 0.323013
vn -0.094177 0.941697 0.323013
vn -0.094177 0.941697 0.323013
vn -0.094177 0.941697 0.323013
vn 0.335965 0.847645 -0.410639
vn 0.335965 0.847645 -0.410639
vn 0.335965 0.847645 -0.410639
vn 0.406769 0.634228 0.657491
vn 0.406769 0.634228 0.657491
vn 0.406769 0.634228 0.657491
vn 0.406769 0.634228 0.657491
vn -0.298825 0.699187 0.649493
vn -0.298825 0.699187 0.649493
vn -0.298825 0.699187 0.649493
vn -0.298825 0.699187 0.649493
vn -0.359298 0.216446 -0.907775
vn -0.359298 0.216446 -0.907775
vn -0.359298 0.216446 -0.907775
vn -0.359298 0.216446 -0.907775
vn -0.355407 0.214103 0.909860
vn -0.355407 0.214103 0.909860
vn -0.355407 0.214103 0.909860
vn -0.355407 0.214103 0.909860
vn -0.284064 0.771813 -0.568869
vn -0.284064 0.771813 -0.568869
vn -0.284064 0.771813 -0.568869
vn -0.284064 0.771813 -0.568869
vn 0.376847 0.728022 -0.572687
vn 0.376847 0.728022 -0.572687
vn 0.376847 0.728022 -0.572687
vn 0.376847 0.728022 -0.572687
vn 0.168848 -0.966759 -0.192009
vn 0.168848 -0.966759 -0.192009
vn 0.168848 -0.966759 -0.192009
s off
g spc:Group2
usemtl blinn1SG
f 2/1/1 21/2/2 30/3/3 31/4/4
f 1/7/5 20/11/6 21/12/7 2/8/8
f 20/11/9 5/13/10 4/15/11
f 1/7/12 2/8/13 31/9/14 32/10/15
f 3/58/16 4/59/17 28/60/18 29/61/19
f 4/59/20 5/62/21 27/63/22 28/60/23
f 5/13/24 1/7/25 32/10/26 27/14/27
f 10/33/28 6/37/29 22/34/30 23/30/31
usemtl phong1SG
f 11/17/32 12/18/33 16/19/34 15/20/35
f 24/22/36 25/21/37 14/28/38 13/29/39
f 13/44/40 14/38/41 15/43/42 16/45/43
usemtl blinn1SG
f 23/30/44 24/22/45 13/29/46 10/33/47
f 12/18/48 8/23/49 9/24/50 16/19/51
f 16/45/52 9/46/53 10/47/54 13/44/55
usemtl phong1SG
f 19/25/56 26/27/57 17/26/58
f 14/38/59 25/39/60 26/40/61 18/41/62
f 11/17/63 15/20/64 19/25/65 17/26/66
f 15/43/67 14/38/68 18/41/69 19/42/70
usemtl blinn1SG
f 20/11/71 4/15/72 3/16/73 21/12/74
f 30/52/75 21/53/76 3/54/77 29/55/78
f 23/30/79 22/34/80 7/35/81 8/23/82
f 8/23/83 12/18/84 24/22/85 23/30/86
usemtl phong1SG
f 12/18/87 11/17/88 25/21/89 24/22/90
f 26/27/91 25/21/92 11/17/93 17/26/94
f 18/41/95 26/40/96 19/42/97
usemtl blinn1SG
f 28/31/98 27/32/99 9/24/100 8/23/101
f 29/36/102 28/31/103 8/23/104 7/35/105
f 22/56/106 30/52/107 29/55/108 7/57/109
f 31/4/110 30/3/111 22/5/112 6/6/113
f 32/49/114 31/50/115 6/51/116 10/47/117
f 27/48/118 32/49/119 10/47/120 9/46/121
f 1/7/122 5/13/123 20/11/124
